X Lossless Decoder version 20110417 (131.0)

XLD extraction logfile from 2011-04-20 00:22:30 +0900

Perfume / VOICE

Used drive : MATSHITA DVD-R   UJ-868 (revision KB19)

Ripper mode             : CDParanoia III 10.2
Disable audio cache     : OK for the drive with a cache less than 2750KiB
Make use of C2 pointers : NO
Read offset correction  : 102
Max retry count         : 100
Gap status              : Analyzed, Appended

TOC of the extracted CD
     Track |   Start  |  Length  | Start sector | End sector 
    ---------------------------------------------------------
        1  | 00:00:00 | 04:13:18 |         0    |    18992   
        2  | 04:13:18 | 04:27:48 |     18993    |    39065   
        3  | 08:40:66 | 04:12:31 |     39066    |    57996   
        4  | 12:53:22 | 04:25:29 |     57997    |    77900   

AccurateRip Summary
    Track 01 : OK (AR2, confidence 2)
    Track 02 : NG
    Track 03 : OK (AR2, confidence 2)
    Track 04 : NG
        ->2 track(s) accurately ripped, 2 track(s) not, 0 track(s) not found

All Tracks
    Filename : /Users/m4c/Public/flac/VOICE.flac
    CRC32 hash             : 8CA4CD81
    CRC32 hash (skip zero) : F55142F9
    Statistics
        Read error                           : 0
        Skipped (treated as error)           : 0
        Edge jitter error (maybe fixed)      : 9
        Atom jitter error (maybe fixed)      : 2
        Drift error (maybe fixed)            : 0
        Dropped bytes error (maybe fixed)    : 0
        Duplicated bytes error (maybe fixed) : 2

Track 01
    Pre-gap length : 00:02:00

    CRC32 hash             : 3309B916
    CRC32 hash (skip zero) : AAFC0667
    AccurateRip signature  : B68F2E48
        ->Accurately ripped! (AR2, confidence 2)
    Statistics
        Read error                           : 0
        Skipped (treated as error)           : 0
        Edge jitter error (maybe fixed)      : 0
        Atom jitter error (maybe fixed)      : 0
        Drift error (maybe fixed)            : 0
        Dropped bytes error (maybe fixed)    : 0
        Duplicated bytes error (maybe fixed) : 0

Track 02

    CRC32 hash             : 14A65D83
    CRC32 hash (skip zero) : 29754BB4
    AccurateRip signature  : FCB27BD8
        ->Rip may not be accurate.
    Statistics
        Read error                           : 0
        Skipped (treated as error)           : 0
        Edge jitter error (maybe fixed)      : 6
        Atom jitter error (maybe fixed)      : 1
        Drift error (maybe fixed)            : 0
        Dropped bytes error (maybe fixed)    : 0
        Duplicated bytes error (maybe fixed) : 1

Track 03

    CRC32 hash             : CA7047B3
    CRC32 hash (skip zero) : 0A98E939
    AccurateRip signature  : 0F3962B2
        ->Accurately ripped! (AR2, confidence 2)
    Statistics
        Read error                           : 0
        Skipped (treated as error)           : 0
        Edge jitter error (maybe fixed)      : 0
        Atom jitter error (maybe fixed)      : 0
        Drift error (maybe fixed)            : 0
        Dropped bytes error (maybe fixed)    : 0
        Duplicated bytes error (maybe fixed) : 0

Track 04

    CRC32 hash             : 4D4170E0
    CRC32 hash (skip zero) : 76241C57
    AccurateRip signature  : 74733F56
        ->Rip may not be accurate.
    Statistics
        Read error                           : 0
        Skipped (treated as error)           : 0
        Edge jitter error (maybe fixed)      : 3
        Atom jitter error (maybe fixed)      : 1
        Drift error (maybe fixed)            : 0
        Dropped bytes error (maybe fixed)    : 0
        Duplicated bytes error (maybe fixed) : 1

No errors occurred

End of status report
